<?xml version="1.0" encoding="UTF-8"?>
<!DOCTYPE svg PUBLIC "-//W3C//DTD SVG 1.1//EN" "http://www.w3.org/Graphics/SVG/1.1/DTD/svg11.dtd">
<svg xmlns="http://www.w3.org/2000/svg" version="1.1" width="600px" height="600px" style="shape-rendering:geometricPrecision; text-rendering:geometricPrecision; image-rendering:optimizeQuality; fill-rule:evenodd; clip-rule:evenodd" xmlns:xlink="http://www.w3.org/1999/xlink">
<g><path style="opacity:0.97" fill="#010101" d="M 528.5,2.5 C 539.172,2.3335 549.839,2.50016 560.5,3C 573.233,6.60159 579.567,15.1016 579.5,28.5C 590.025,29.3584 596.025,35.025 597.5,45.5C 598.996,54.2231 598.83,62.8898 597,71.5C 595.019,73.6575 592.686,75.3241 590,76.5C 589.667,113.833 589.333,151.167 589,188.5C 588.64,190.608 587.973,192.608 587,194.5C 583.527,197.061 580.527,200.061 578,203.5C 577.837,283.172 577.17,362.839 576,442.5C 574.276,465.063 568.943,486.73 560,507.5C 559.333,509.833 559.333,512.167 560,514.5C 563.931,521.688 566.098,529.354 566.5,537.5C 565.962,551.872 558.462,559.539 544,560.5C 536.949,559.483 530.116,557.65 523.5,555C 520.833,554.333 518.167,554.333 515.5,555C 493.224,566.486 469.557,572.819 444.5,574C 362.833,574.333 281.167,574.667 199.5,575C 198.5,575.333 197.5,575.667 196.5,576C 194.378,580.459 190.878,582.959 186,583.5C 151.2,583.563 116.367,583.396 81.5,583C 76.0934,584.077 73.0934,587.41 72.5,593C 62.2238,594.854 51.8904,594.854 41.5,593C 30.2992,590.769 24.6325,583.936 24.5,572.5C 11.2763,572.106 3.44296,565.44 1,552.5C 0.086653,543.424 0.419986,534.424 2,525.5C 3.79849,523.028 6.13183,521.361 9,520.5C 9.33333,482.833 9.66667,445.167 10,407.5C 10.4709,405.754 11.1376,404.087 12,402.5C 15.4731,399.939 18.4731,396.939 21,393.5C 21.3333,313.5 21.6667,233.5 22,153.5C 23.5035,134.819 27.8368,116.819 35,99.5C 36.0148,92.2025 34.3482,85.5358 30,79.5C 24.3555,58.6177 31.8555,45.1177 52.5,39C 55.1667,38.3333 57.8333,38.3333 60.5,39C 67.1919,41.595 74.0253,43.7617 81,45.5C 92.4752,41.0069 103.975,36.5069 115.5,32C 127.898,28.0672 140.565,25.4005 153.5,24C 226.483,22.7053 299.483,22.0387 372.5,22C 380.369,21.7866 388.202,21.2866 396,20.5C 398.597,21.8937 401.097,21.727 403.5,20C 404.833,17.3333 406.833,15.3333 409.5,14C 447.167,13.6667 484.833,13.3333 522.5,13C 523.847,9.14045 525.847,5.64045 528.5,2.5 Z"/></g>
<g><path style="opacity:1" fill="#8e8e8e" d="M 564.5,163.5 C 564.5,126.5 564.5,89.5 564.5,52.5C 559.453,52.6625 554.453,52.3292 549.5,51.5C 549.167,90.5057 549.5,129.506 550.5,168.5C 553.349,170.012 555.016,172.345 555.5,175.5C 554.489,177.372 553.655,179.372 553,181.5C 552.5,189.159 552.334,196.826 552.5,204.5C 542.17,210.64 531.503,211.14 520.5,206C 518.338,203.151 516.005,200.484 513.5,198C 483.412,199.312 456.079,191.312 431.5,174C 426.249,171.472 420.916,169.139 415.5,167C 411.349,156.202 405.515,146.369 398,137.5C 385.246,115.488 379.58,91.8209 381,66.5C 380.626,65.5838 380.126,64.7504 379.5,64C 377.481,63.5503 375.648,62.717 374,61.5C 370.85,55.5502 369.017,49.2169 368.5,42.5C 369.979,37.3967 371.646,32.3967 373.5,27.5C 383.475,26.77 393.475,26.27 403.5,26C 404.901,25.5899 406.234,25.0899 407.5,24.5C 407.544,28.0897 409.211,30.5897 412.5,32C 452.171,32.8333 491.838,32.6666 531.5,31.5C 530.122,26.6074 528.455,21.9408 526.5,17.5C 528.59,14.5721 530.256,11.4055 531.5,8C 541.873,7.19614 552.207,7.52948 562.5,9C 567.731,11.2315 571.231,15.0648 573,20.5C 573.667,29.1667 573.667,37.8333 573,46.5C 570.427,47.8065 568.094,49.4731 566,51.5C 565.833,89.0022 565.333,126.336 564.5,163.5 Z"/></g>
<g><path style="opacity:1" fill="#bbbbbb" d="M 526.5,17.5 C 528.455,21.9408 530.122,26.6074 531.5,31.5C 491.838,32.6666 452.171,32.8333 412.5,32C 409.211,30.5897 407.544,28.0897 407.5,24.5C 408.228,22.2654 409.561,20.4321 411.5,19C 449.875,18.8213 488.208,18.3213 526.5,17.5 Z"/></g>
<g><path style="opacity:1" fill="#ceb080" d="M 373.5,27.5 C 371.646,32.3967 369.979,37.3967 368.5,42.5C 369.017,49.2169 370.85,55.5502 374,61.5C 375.648,62.717 377.481,63.5503 379.5,64C 380.126,64.7504 380.626,65.5838 381,66.5C 379.58,91.8209 385.246,115.488 398,137.5C 405.515,146.369 411.349,156.202 415.5,167C 420.916,169.139 426.249,171.472 431.5,174C 456.079,191.312 483.412,199.312 513.5,198C 516.005,200.484 518.338,203.151 520.5,206C 531.503,211.14 542.17,210.64 552.5,204.5C 552.667,274.834 552.5,345.167 552,415.5C 550.434,438.428 545.101,460.428 536,481.5C 534.662,489.813 536.328,497.48 541,504.5C 545.487,525.678 536.987,535.178 515.5,533C 503.067,526.418 491.067,527.085 479.5,535C 460.937,542.541 441.604,546.874 421.5,548C 349.501,548.5 277.501,548.667 205.5,548.5C 208.653,543.907 211.153,538.907 213,533.5C 213.667,531.167 213.667,528.833 213,526.5C 210.804,521.58 208.804,516.58 207,511.5C 205,510.833 203,510.167 201,509.5C 202.372,475.285 192.372,444.952 171,418.5C 169.667,415.167 168.333,411.833 167,408.5C 152.52,400.7 138.02,392.867 123.5,385C 105.101,378.276 86.1009,375.276 66.5,376C 65.8957,373.532 64.5624,371.532 62.5,370C 55.4004,365.641 47.7337,363.975 39.5,365C 35.578,366.798 31.578,368.298 27.5,369.5C 26.3345,299.668 26.1679,229.668 27,159.5C 27.5509,140.412 31.5509,122.079 39,104.5C 40.4561,98.9034 40.7894,93.2367 40,87.5C 38.2571,83.0162 36.2571,78.6829 34,74.5C 31.5726,57.0124 39.0726,47.0124 56.5,44.5C 58.5,44.6667 60.5,44.8333 62.5,45C 66.5,46.6667 70.5,48.3333 74.5,50C 78.8333,50.6667 83.1667,50.6667 87.5,50C 112.169,36.7783 138.502,29.445 166.5,28C 235.499,27.5 304.499,27.3333 373.5,27.5 Z"/></g>
<g><path style="opacity:1" fill="#bebebe" d="M 564.5,163.5 C 563.822,169.185 560.822,173.185 555.5,175.5C 555.016,172.345 553.349,170.012 550.5,168.5C 549.5,129.506 549.167,90.5057 549.5,51.5C 554.453,52.3292 559.453,52.6625 564.5,52.5C 564.5,89.5 564.5,126.5 564.5,163.5 Z"/></g>
<g><path style="opacity:1" fill="#bebebe" d="M 422.5,56.5 C 444.836,56.3334 467.169,56.5 489.5,57C 491.243,63.4716 490.41,69.6383 487,75.5C 471.954,91.0469 456.454,106.047 440.5,120.5C 439.558,120.392 438.725,120.059 438,119.5C 425.447,100.287 420.28,79.2872 422.5,56.5 Z"/></g>
<g><path style="opacity:1" fill="#fc4957" d="M 57.5,56.5 C 63.1341,56.9625 65.6341,59.9625 65,65.5C 62.1667,68.3333 59.3333,71.1667 56.5,74C 52.3661,75.098 49.3661,73.7646 47.5,70C 52.9575,67.0465 56.2909,62.5465 57.5,56.5 Z"/></g>
<g><path style="opacity:1" fill="#bebebe" d="M 409.5,58.5 C 410.444,70.4286 411.944,82.4286 414,94.5C 417.199,105.106 421.366,115.272 426.5,125C 426.415,126.107 426.081,127.107 425.5,128C 422.27,130.073 418.937,131.906 415.5,133.5C 412.559,132.394 410.392,130.394 409,127.5C 397.645,107.772 393.145,86.7721 395.5,64.5C 398.777,63.7463 402.11,63.2463 405.5,63C 407.041,61.6288 408.375,60.1288 409.5,58.5 Z"/></g>
<g><path style="opacity:1" fill="#fd4856" d="M 224.5,60.5 C 236.807,61.395 249.141,61.7283 261.5,61.5C 262.154,65.8394 261.154,69.6727 258.5,73C 251.202,74.6929 243.869,76.1929 236.5,77.5C 234.192,77.6353 232.192,76.9686 230.5,75.5C 227.624,71.7941 224.957,67.9608 222.5,64C 222.978,62.6974 223.645,61.5307 224.5,60.5 Z"/></g>
<g><path style="opacity:1" fill="#fe4655" d="M 277.5,61.5 C 297.169,61.3334 316.836,61.5 336.5,62C 340.783,74.4676 337.116,84.1342 325.5,91C 319.346,94.872 312.679,96.5386 305.5,96C 297.597,85.9657 287.764,78.4657 276,73.5C 275.528,69.3659 276.028,65.3659 277.5,61.5 Z"/></g>
<g><path style="opacity:1" fill="#fd4756" d="M 351.5,61.5 C 354.448,61.2229 357.281,61.5562 360,62.5C 360.33,82.3102 363.496,101.644 369.5,120.5C 369.536,123.301 368.203,125.135 365.5,126C 360.778,128.933 355.778,130.099 350.5,129.5C 346.48,120.339 341.48,111.839 335.5,104C 339.7,98.4401 343.533,92.6068 347,86.5C 349.637,78.3303 351.137,69.997 351.5,61.5 Z"/></g>
<g><path style="opacity:1" fill="#fd4856" d="M 197.5,61.5 C 200.685,61.0196 203.519,61.6863 206,63.5C 206.92,70.0068 209.92,75.3401 215,79.5C 215.658,81.108 215.158,82.2747 213.5,83C 208.912,84.2843 204.245,85.1176 199.5,85.5C 193.922,84.8779 188.588,83.3779 183.5,81C 177.833,80.6667 172.167,80.3333 166.5,80C 164.474,77.1158 163.141,73.9491 162.5,70.5C 162.709,69.0055 163.376,67.8388 164.5,67C 175.572,64.7468 186.572,62.9134 197.5,61.5 Z"/></g>
<g><path style="opacity:1" fill="#fe4755" d="M 140.5,125.5 C 139.127,125.657 137.793,125.49 136.5,125C 132.878,120.255 129.378,115.422 126,110.5C 123.963,108.294 121.797,106.294 119.5,104.5C 117.5,102.329 115.666,99.9957 114,97.5C 113.333,94.1667 113.333,90.8333 114,87.5C 122.528,81.4854 131.694,76.9854 141.5,74C 143.457,80.6224 145.957,87.1224 149,93.5C 153.896,100.14 158.396,106.973 162.5,114C 162.302,117.401 160.635,119.734 157.5,121C 152.225,124.037 146.559,125.537 140.5,125.5 Z"/></g>
<g><path style="opacity:1" fill="#fd4756" d="M 267.5,89.5 C 275.418,90.0424 281.918,93.3757 287,99.5C 288.318,107.195 285.151,112.028 277.5,114C 259.769,113.413 242.935,116.913 227,124.5C 218.279,119.554 209.445,114.721 200.5,110C 194.124,108.439 187.79,106.772 181.5,105C 178.922,102.772 177.589,99.9391 177.5,96.5C 184.33,97.1292 191.163,97.7958 198,98.5C 210.55,96.8234 223.05,94.8234 235.5,92.5C 236.833,92.8333 238.167,93.1667 239.5,93.5C 241.903,109.956 249.736,113.289 263,103.5C 266.038,99.353 267.538,94.6863 267.5,89.5 Z"/></g>
<g><path style="opacity:1" fill="#bebebe" d="M 513.5,89.5 C 516.482,89.9629 519.482,90.2962 522.5,90.5C 522.833,112.177 522.5,133.844 521.5,155.5C 500.088,158.187 480.254,153.854 462,142.5C 461.333,140.833 461.333,139.167 462,137.5C 477.167,122.333 492.333,107.167 507.5,92C 509.611,91.1553 511.611,90.322 513.5,89.5 Z"/></g>
<g><path style="opacity:1" fill="#90dbed" d="M 119.5,104.5 C 121.797,106.294 123.963,108.294 126,110.5C 129.378,115.422 132.878,120.255 136.5,125C 137.793,125.49 139.127,125.657 140.5,125.5C 141.167,130.5 141.833,135.5 142.5,140.5C 144.553,140.402 146.22,141.069 147.5,142.5C 149.779,159.094 157.779,172.094 171.5,181.5C 172.086,181.291 172.586,180.957 173,180.5C 173.333,174.167 173.667,167.833 174,161.5C 182.091,148.248 192.924,145.415 206.5,153C 213.375,158.834 215.208,166.001 212,174.5C 205.598,182.791 197.098,187.624 186.5,189C 196.623,197.447 207.956,203.78 220.5,208C 223.146,208.497 225.813,208.664 228.5,208.5C 229.952,209.302 231.618,209.802 233.5,210C 238.94,213.709 243.94,217.875 248.5,222.5C 248.755,225.016 249.589,227.35 251,229.5C 260.746,238.081 269.913,247.081 278.5,256.5C 276.745,257.072 275.078,257.906 273.5,259C 268.133,264.032 263.133,269.365 258.5,275C 257.906,275.464 257.239,275.631 256.5,275.5C 251.525,265.726 245.192,256.893 237.5,249C 229.47,243.045 220.47,240.212 210.5,240.5C 205.244,238.185 199.91,235.852 194.5,233.5C 194.67,232.178 194.337,231.011 193.5,230C 186.442,228.203 179.442,226.203 172.5,224C 164.949,220.063 157.616,215.896 150.5,211.5C 147.424,207.793 143.758,204.793 139.5,202.5C 139.737,198.727 139.237,195.06 138,191.5C 130.841,178.183 124.507,164.516 119,150.5C 112.644,141.324 106.144,132.324 99.5,123.5C 106.825,117.842 113.491,111.508 119.5,104.5 Z"/></g>
<g><path style="opacity:1" fill="#fe4755" d="M 99.5,123.5 C 106.144,132.324 112.644,141.324 119,150.5C 124.507,164.516 130.841,178.183 138,191.5C 139.237,195.06 139.737,198.727 139.5,202.5C 137.53,205.328 135.697,208.328 134,211.5C 132.867,213.211 131.367,213.711 129.5,213C 125.214,201.15 120.714,189.317 116,177.5C 111.127,167.312 103.294,163.479 92.5,166C 86.8091,170.693 83.9758,176.86 84,184.5C 80.25,192.456 74.0833,195.79 65.5,194.5C 62.4186,166.986 67.9186,141.319 82,117.5C 83.3152,114.594 85.4819,113.427 88.5,114C 91.7438,117.75 95.4105,120.917 99.5,123.5 Z"/></g>
<g><path style="opacity:1" fill="#fd4756" d="M 310.5,115.5 C 323.401,114.912 332.235,120.579 337,132.5C 339.296,145.051 337.129,156.717 330.5,167.5C 326.628,168.991 323.461,167.991 321,164.5C 321.275,154.595 318.608,145.595 313,137.5C 308.82,132.655 304.653,127.822 300.5,123C 301.101,121.395 302.101,120.062 303.5,119C 305.925,117.787 308.259,116.621 310.5,115.5 Z"/></g>
<g><path style="opacity:1" fill="#fd4755" d="M 228.5,208.5 C 225.813,208.664 223.146,208.497 220.5,208C 207.956,203.78 196.623,197.447 186.5,189C 197.098,187.624 205.598,182.791 212,174.5C 215.208,166.001 213.375,158.834 206.5,153C 192.924,145.415 182.091,148.248 174,161.5C 173.667,167.833 173.333,174.167 173,180.5C 172.586,180.957 172.086,181.291 171.5,181.5C 157.779,172.094 149.779,159.094 147.5,142.5C 159.638,140.764 169.305,134.931 176.5,125C 188.47,124.825 199.804,127.492 210.5,133C 215.875,137.039 219.709,142.206 222,148.5C 223.594,158.919 225.594,169.252 228,179.5C 230.878,185.547 235.044,190.547 240.5,194.5C 241.818,196.912 241.651,199.246 240,201.5C 237.833,203.667 235.667,205.833 233.5,208C 231.866,208.494 230.199,208.66 228.5,208.5 Z"/></g>
<g><path style="opacity:1" fill="#fd4756" d="M 261.5,129.5 C 263.527,129.338 265.527,129.505 267.5,130C 268.516,130.519 269.182,131.353 269.5,132.5C 267.082,136.335 264.915,140.335 263,144.5C 262.213,153.408 266.046,159.574 274.5,163C 282.22,165.004 288.72,163.17 294,157.5C 295.231,154.039 296.731,150.706 298.5,147.5C 303.554,154.891 304.554,162.724 301.5,171C 288.037,179.427 273.37,182.76 257.5,181C 253.924,180.81 250.758,179.643 248,177.5C 247.495,167.635 246.162,157.968 244,148.5C 248.992,141.344 254.825,135.01 261.5,129.5 Z"/></g>
<g><path style="opacity:1" fill="#fe4755" d="M 371.5,138.5 C 374.365,138.055 376.865,138.722 379,140.5C 383.174,147.516 387.841,154.183 393,160.5C 393.667,161.833 393.667,163.167 393,164.5C 386.128,171.041 378.961,177.207 371.5,183C 363.695,184.036 356.028,185.369 348.5,187C 346.129,185.257 344.795,182.923 344.5,180C 349.542,170.127 352.042,159.627 352,148.5C 352.308,147.692 352.808,147.025 353.5,146.5C 360.052,144.887 366.052,142.22 371.5,138.5 Z"/></g>
<g><path style="opacity:1" fill="#bebebe" d="M 455.5,154.5 C 457.199,154.34 458.866,154.506 460.5,155C 478.623,164.493 497.957,169.16 518.5,169C 517.874,169.75 517.374,170.584 517,171.5C 516.667,175.167 516.333,178.833 516,182.5C 492.82,185.253 470.987,180.753 450.5,169C 449.57,167.806 448.903,166.473 448.5,165C 450.648,161.357 452.981,157.857 455.5,154.5 Z"/></g>
<g><path style="opacity:1" fill="#fd4856" d="M 321.5,184.5 C 322.93,184.421 324.264,184.754 325.5,185.5C 327.992,190.305 331.325,194.472 335.5,198C 339.842,200.171 344.176,202.338 348.5,204.5C 336.985,215.849 325.318,227.016 313.5,238C 311.711,238.52 310.044,238.187 308.5,237C 298.244,229.622 288.078,222.122 278,214.5C 277.077,212.966 276.577,211.299 276.5,209.5C 277.095,206.86 277.428,204.193 277.5,201.5C 285.125,200.06 289.958,203.06 292,210.5C 300.929,218.44 309.929,218.44 319,210.5C 323.439,202.911 323.605,195.244 319.5,187.5C 319.942,186.261 320.609,185.261 321.5,184.5 Z"/></g>
<g><path style="opacity:1" fill="#fd4756" d="M 101.5,187.5 C 104.808,186.974 106.974,188.307 108,191.5C 109.862,195.419 111.529,199.419 113,203.5C 112.77,219.3 118.27,232.633 129.5,243.5C 128.252,245.459 126.585,246.959 124.5,248C 115.528,250.532 106.862,249.865 98.5,246C 96.9588,244.421 95.7922,242.587 95,240.5C 94.3333,235.833 94.3333,231.167 95,226.5C 96.6667,219.167 98.3333,211.833 100,204.5C 100.746,199.958 100.579,195.458 99.5,191C 99.9783,189.697 100.645,188.531 101.5,187.5 Z"/></g>
<g><path style="opacity:1" fill="#fd4856" d="M 421.5,194.5 C 423.527,194.338 425.527,194.505 427.5,195C 439.342,202.667 452.009,208.501 465.5,212.5C 465.25,217.58 465.75,222.58 467,227.5C 469.567,233.069 472.567,238.403 476,243.5C 478.479,253.768 477.313,263.602 472.5,273C 470.299,273.825 468.466,273.325 467,271.5C 467.475,253.951 460.642,240.118 446.5,230C 442.932,228.382 439.265,227.049 435.5,226C 425.829,225.876 416.162,225.876 406.5,226C 403.804,225.235 401.304,224.068 399,222.5C 398.365,220.365 398.699,218.365 400,216.5C 407.369,209.298 414.536,201.965 421.5,194.5 Z"/></g>
<g><path style="opacity:1" fill="#fd4856" d="M 82.5,204.5 C 84.1667,204.5 85.8333,204.5 87.5,204.5C 88.3372,217.49 84.5038,228.823 76,238.5C 69.9225,247.578 71.7559,254.411 81.5,259C 87.8299,258.934 94.1632,258.934 100.5,259C 111.615,267.898 111.115,276.064 99,283.5C 91.1537,275.024 81.6537,268.857 70.5,265C 68,263.833 66.1667,262 65,259.5C 64.3333,246.5 64.3333,233.5 65,220.5C 65.7648,217.804 66.9315,215.304 68.5,213C 73.0639,209.89 77.7306,207.056 82.5,204.5 Z"/></g>
<g><path style="opacity:1" fill="#fd4755" d="M 150.5,211.5 C 157.616,215.896 164.949,220.063 172.5,224C 179.442,226.203 186.442,228.203 193.5,230C 194.337,231.011 194.67,232.178 194.5,233.5C 175.149,241.872 168.482,256.205 174.5,276.5C 174.61,278.374 173.944,279.874 172.5,281C 166.611,284.389 160.278,286.389 153.5,287C 144.138,287.628 134.805,287.295 125.5,286C 123.789,284.867 123.289,283.367 124,281.5C 125.833,279.667 127.667,277.833 129.5,276C 131.5,275.333 133.5,275.333 135.5,276C 144.298,281.267 152.131,280.1 159,272.5C 161.478,267.04 160.811,262.04 157,257.5C 154.154,255.743 151.488,253.743 149,251.5C 145.229,242.19 143.563,232.524 144,222.5C 145.172,218.142 147.339,214.475 150.5,211.5 Z"/></g>
<g><path style="opacity:1" fill="#fe4755" d="M 486.5,217.5 C 494.163,217.978 501.83,218.478 509.5,219C 513.02,219.504 515.52,221.337 517,224.5C 517.002,247.064 516.502,269.564 515.5,292C 504.221,291.111 496.054,285.611 491,275.5C 490.237,266.642 490.404,257.809 491.5,249C 491.538,239.594 488.871,231.094 483.5,223.5C 483.984,221.199 484.984,219.199 486.5,217.5 Z"/></g>
<g><path style="opacity:1" fill="#fd4856" d="M 248.5,222.5 C 267.649,225.493 283.816,234.159 297,248.5C 298.187,250.044 298.52,251.711 298,253.5C 294.965,256.87 291.632,259.87 288,262.5C 285.198,259.854 282.032,257.854 278.5,256.5C 269.913,247.081 260.746,238.081 251,229.5C 249.589,227.35 248.755,225.016 248.5,222.5 Z"/></g>
<g><path style="opacity:1" fill="#fe4755" d="M 384.5,231.5 C 388.224,231.05 390.391,232.717 391,236.5C 391.68,241.804 390.68,246.804 388,251.5C 385.966,261.74 387.966,271.073 394,279.5C 394.684,284.501 392.517,287.668 387.5,289C 375.362,292.944 364.862,290.444 356,281.5C 352.849,275.512 351.849,269.179 353,262.5C 354.061,259.438 355.894,256.938 358.5,255C 367.429,247.384 376.095,239.55 384.5,231.5 Z"/></g>
<g><path style="opacity:1" fill="#fd4856" d="M 420.5,235.5 C 422.924,235.192 425.257,235.526 427.5,236.5C 418.994,246.632 419.66,256.132 429.5,265C 436.085,266.652 442.252,265.485 448,261.5C 446.128,272.192 439.628,277.859 428.5,278.5C 410.295,276.427 403.129,266.427 407,248.5C 410.076,242.589 414.576,238.255 420.5,235.5 Z"/></g>
<g><path style="opacity:1" fill="#fd4756" d="M 210.5,240.5 C 220.47,240.212 229.47,243.045 237.5,249C 245.192,256.893 251.525,265.726 256.5,275.5C 261.731,285.386 259.231,292.72 249,297.5C 245.714,292.288 242.381,286.955 239,281.5C 225.955,267.445 210.121,263.111 191.5,268.5C 189.995,253.696 196.328,244.363 210.5,240.5 Z"/></g>
<g><path style="opacity:1" fill="#fd4756" d="M 369.5,331.5 C 355.127,329.308 343.627,322.308 335,310.5C 331.555,305.268 328.389,299.935 325.5,294.5C 324.833,292.181 324.666,289.847 325,287.5C 328.667,283.833 332.333,280.167 336,276.5C 346.661,302.904 365.827,312.238 393.5,304.5C 393.577,311.527 392.077,318.193 389,324.5C 384.09,330.972 377.59,333.305 369.5,331.5 Z"/></g>
<g><path style="opacity:1" fill="#fd4755" d="M 66.5,282.5 C 78.343,283.515 87.1763,289.182 93,299.5C 92.6855,309.155 92.6855,318.821 93,328.5C 94.7696,336.024 97.6029,343.024 101.5,349.5C 101.444,352.111 100.444,354.278 98.5,356C 87.8822,355.188 77.2155,354.521 66.5,354C 66,353.5 65.5,353 65,352.5C 64.3333,329.833 64.3333,307.167 65,284.5C 65.7172,283.956 66.2172,283.289 66.5,282.5 Z"/></g>
<g><path style="opacity:1" fill="#fe4755" d="M 202.5,284.5 C 219.813,282.985 229.48,290.818 231.5,308C 231.506,310.3 231.006,312.466 230,314.5C 220.85,324.66 210.85,333.66 200,341.5C 196.139,341.307 193.805,339.307 193,335.5C 193.339,329.453 194.339,323.453 196,317.5C 196.667,313.167 196.667,308.833 196,304.5C 194.479,299.956 192.312,295.789 189.5,292C 189.645,291.228 189.978,290.561 190.5,290C 194.481,287.838 198.481,286.005 202.5,284.5 Z"/></g>
<g><path style="opacity:1" fill="#fd4755" d="M 436.5,362.5 C 434.473,362.662 432.473,362.495 430.5,362C 419.272,353.719 406.939,347.553 393.5,343.5C 392.614,342.675 392.281,341.675 392.5,340.5C 408.718,328.572 415.051,312.738 411.5,293C 426.475,285.098 442.142,283.432 458.5,288C 460.18,288.347 461.18,289.347 461.5,291C 459.306,295.699 455.64,298.199 450.5,298.5C 447.044,298.182 443.711,297.348 440.5,296C 429.484,295.351 423.984,300.517 424,311.5C 424.471,313.246 425.138,314.913 426,316.5C 429.667,319.5 433.333,322.5 437,325.5C 436.695,331.912 438.028,337.912 441,343.5C 441.667,346.5 441.667,349.5 441,352.5C 439.191,355.778 437.691,359.111 436.5,362.5 Z"/></g>
<g><path style="opacity:1" fill="#fd4856" d="M 484.5,290.5 C 485.552,290.351 486.552,290.517 487.5,291C 490.659,295.58 494.659,299.247 499.5,302C 504.895,304.902 510.395,307.402 516,309.5C 516.667,326.833 516.667,344.167 516,361.5C 510.493,364.92 505.159,368.586 500,372.5C 496.574,357.028 499.907,343.361 510,331.5C 513.227,320.591 509.394,314.257 498.5,312.5C 493.59,314.073 488.59,314.573 483.5,314C 477.627,310.061 475.46,304.561 477,297.5C 478.742,294.254 481.242,291.921 484.5,290.5 Z"/></g>
<g><path style="opacity:1" fill="#fd4856" d="M 150.5,295.5 C 167.097,294.932 177.097,302.766 180.5,319C 178.309,333.274 169.976,339.608 155.5,338C 159.467,333.61 161.8,328.443 162.5,322.5C 161.871,314.706 157.705,310.372 150,309.5C 145.485,310.378 140.985,310.878 136.5,311C 138.931,303.739 143.598,298.572 150.5,295.5 Z"/></g>
<g><path style="opacity:1" fill="#90dbed" d="M 325.5,294.5 C 328.389,299.935 331.555,305.268 335,310.5C 343.627,322.308 355.127,329.308 369.5,331.5C 373.647,332.325 377.981,332.825 382.5,333C 386.08,335.277 389.414,337.777 392.5,340.5C 392.281,341.675 392.614,342.675 393.5,343.5C 406.939,347.553 419.272,353.719 430.5,362C 432.473,362.495 434.473,362.662 436.5,362.5C 439.771,365.268 442.938,368.268 446,371.5C 446.186,374.036 446.686,376.369 447.5,378.5C 450.039,386.584 452.873,394.584 456,402.5C 457.713,403.878 459.047,405.545 460,407.5C 461.382,414.362 463.382,421.028 466,427.5C 471.258,436.251 477.425,444.251 484.5,451.5C 480.831,457.336 475.997,462.002 470,465.5C 468.293,467.909 467.46,470.575 467.5,473.5C 462.43,466.389 457.096,459.389 451.5,452.5C 449.6,450.384 447.267,449.051 444.5,448.5C 444.138,441.11 441.138,435.11 435.5,430.5C 436.492,427.221 436.659,423.888 436,420.5C 431.79,412.575 426.957,405.075 421.5,398C 411.317,390.144 407.317,392.31 409.5,404.5C 407.119,424.358 396.786,430.191 378.5,422C 371.455,415.121 369.622,406.954 373,397.5C 374.5,394.667 376.667,392.5 379.5,391C 384.284,388.887 389.284,387.554 394.5,387C 395.554,385.612 395.72,384.112 395,382.5C 382.841,373.671 369.341,368.005 354.5,365.5C 348.122,359.787 341.455,354.453 334.5,349.5C 324.5,337.833 314.5,326.167 304.5,314.5C 307.727,304.023 314.727,297.357 325.5,294.5 Z"/></g>
<g><path style="opacity:1" fill="#fd4756" d="M 116.5,300.5 C 119.726,338.173 140.392,354.34 178.5,349C 181.885,350.699 184.052,353.199 185,356.5C 178.051,363.571 171.218,370.738 164.5,378C 162.5,378.667 160.5,378.667 158.5,378C 146.913,373.138 135.246,368.471 123.5,364C 121.714,363.215 120.214,362.049 119,360.5C 118.194,350.557 114.861,341.557 109,333.5C 105.35,324.308 105.683,315.308 110,306.5C 112.063,304.266 114.229,302.266 116.5,300.5 Z"/></g>
<g><path style="opacity:1" fill="#fd4856" d="M 304.5,314.5 C 314.5,326.167 324.5,337.833 334.5,349.5C 315.833,348.249 300,340.916 287,327.5C 285.813,325.956 285.48,324.289 286,322.5C 289.925,319.453 293.759,316.286 297.5,313C 300.171,312.167 302.504,312.667 304.5,314.5 Z"/></g>
<g><path style="opacity:1" fill="#fd4856" d="M 467.5,323.5 C 482.073,322.906 489.239,329.906 489,344.5C 484.665,356.711 483.498,369.211 485.5,382C 484.371,385.518 482.204,386.685 479,385.5C 477.059,381.952 475.393,378.286 474,374.5C 472.346,357.866 465.846,343.532 454.5,331.5C 454.977,330.522 455.643,329.689 456.5,329C 460.259,327.121 463.925,325.287 467.5,323.5 Z"/></g>
<g><path style="opacity:1" fill="#fd4756" d="M 271.5,335.5 C 273.308,335.491 274.975,335.991 276.5,337C 285.688,345.842 295.855,353.342 307,359.5C 307.415,363.848 307.249,368.181 306.5,372.5C 302.837,373.112 299.17,373.279 295.5,373C 287.103,355.525 275.603,353.025 261,365.5C 259.566,369.406 259.233,373.406 260,377.5C 261.97,380.968 264.136,384.301 266.5,387.5C 263.737,389.681 260.737,390.015 257.5,388.5C 252.65,378.815 244.983,372.648 234.5,370C 246.729,358.267 259.063,346.767 271.5,335.5 Z"/></g>
<g><path style="opacity:1" fill="#fe4755" d="M 484.5,451.5 C 477.425,444.251 471.258,436.251 466,427.5C 463.382,421.028 461.382,414.362 460,407.5C 459.047,405.545 457.713,403.878 456,402.5C 452.873,394.584 450.039,386.584 447.5,378.5C 447.336,375.813 447.503,373.146 448,370.5C 449.586,368.33 450.92,365.996 452,363.5C 452.837,361.993 454.004,361.493 455.5,362C 459.211,373.799 463.711,385.299 469,396.5C 476.142,408.967 485.142,410.634 496,401.5C 497.161,396.894 498.161,392.227 499,387.5C 502.441,380.017 508.107,377.017 516,378.5C 518.964,406.723 513.964,433.39 501,458.5C 500.275,459.059 499.442,459.392 498.5,459.5C 493.816,456.826 489.149,454.159 484.5,451.5 Z"/></g>
<g><path style="opacity:1" fill="#8e8e8e" d="M 205.5,548.5 C 195.128,548.24 184.794,548.573 174.5,549.5C 173.644,545.146 170.977,542.646 166.5,542C 128.833,541.333 91.1667,541.333 53.5,542C 52.4216,542.674 51.7549,543.674 51.5,545C 52.6448,549.267 53.6448,553.433 54.5,557.5C 51.3332,559.952 49.6666,563.285 49.5,567.5C 40.1607,567.666 30.8274,567.5 21.5,567C 14.1771,565.674 9.34375,561.508 7,554.5C 6.33333,545.833 6.33333,537.167 7,528.5C 9.4426,526.699 11.9426,525.032 14.5,523.5C 20.4357,523.823 26.269,523.823 32,523.5C 32.6667,484.5 32.6667,445.5 32,406.5C 28.8062,404.414 26.3062,401.748 24.5,398.5C 25.5942,396.641 26.4275,394.641 27,392.5C 27.4997,384.841 27.6664,377.174 27.5,369.5C 31.578,368.298 35.578,366.798 39.5,365C 47.7337,363.975 55.4004,365.641 62.5,370C 64.5624,371.532 65.8957,373.532 66.5,376C 86.1009,375.276 105.101,378.276 123.5,385C 138.02,392.867 152.52,400.7 167,408.5C 168.333,411.833 169.667,415.167 171,418.5C 192.372,444.952 202.372,475.285 201,509.5C 203,510.167 205,510.833 207,511.5C 208.804,516.58 210.804,521.58 213,526.5C 213.667,528.833 213.667,531.167 213,533.5C 211.153,538.907 208.653,543.907 205.5,548.5 Z"/></g>
<g><path style="opacity:1" fill="#fd4755" d="M 354.5,365.5 C 369.341,368.005 382.841,373.671 395,382.5C 395.72,384.112 395.554,385.612 394.5,387C 389.284,387.554 384.284,388.887 379.5,391C 376.667,392.5 374.5,394.667 373,397.5C 369.622,406.954 371.455,415.121 378.5,422C 396.786,430.191 407.119,424.358 409.5,404.5C 407.317,392.31 411.317,390.144 421.5,398C 426.957,405.075 431.79,412.575 436,420.5C 436.659,423.888 436.492,427.221 435.5,430.5C 429.519,432.998 423.519,435.498 417.5,438C 413.521,441.648 409.855,445.648 406.5,450C 384.35,451.342 368.85,441.842 360,421.5C 356.468,412.506 354.468,403.173 354,393.5C 351.987,386.819 347.82,381.986 341.5,379C 341.039,370.287 345.372,365.787 354.5,365.5 Z"/></g>
<g><path style="opacity:1" fill="#fe4755" d="M 229.5,385.5 C 235.093,385.29 239.093,387.624 241.5,392.5C 238.47,397.896 235.97,403.563 234,409.5C 233.201,415.485 232.535,421.485 232,427.5C 225.239,429.978 218.405,432.478 211.5,435C 209.421,435.808 207.421,435.641 205.5,434.5C 201.909,426.31 197.076,418.976 191,412.5C 190.333,411.5 190.333,410.5 191,409.5C 198.927,402.785 206.76,395.951 214.5,389C 218.167,388.667 221.833,388.333 225.5,388C 227.32,387.8 228.653,386.966 229.5,385.5 Z"/></g>
<g><path style="opacity:1" fill="#bebebe" d="M 72.5,389.5 C 93.5694,389.684 113.236,395.017 131.5,405.5C 132.028,410.315 130.361,414.482 126.5,418C 125.333,418.167 124.167,418.333 123,418.5C 112.806,414.213 102.306,410.713 91.5,408C 81.5425,406.835 71.5425,406.168 61.5,406C 64.7755,401.4 66.1089,396.233 65.5,390.5C 68.0593,390.802 70.3926,390.468 72.5,389.5 Z"/></g>
<g><path style="opacity:1" fill="#fd4856" d="M 304.5,391.5 C 314.946,390.958 325.113,392.291 335,395.5C 335.333,399.833 335.667,404.167 336,408.5C 337.057,414.714 338.391,420.714 340,426.5C 336.167,434.333 330.333,440.167 322.5,444C 318.474,445.337 315.474,444.17 313.5,440.5C 319.492,434.126 320.992,426.793 318,418.5C 309.002,408.213 299.668,407.88 290,417.5C 288.513,420.481 287.179,423.481 286,426.5C 278.736,418.856 277.736,410.522 283,401.5C 289.425,396.368 296.592,393.035 304.5,391.5 Z"/></g>
<g><path style="opacity:1" fill="#bababa" d="M 24.5,398.5 C 26.3062,401.748 28.8062,404.414 32,406.5C 32.6667,445.5 32.6667,484.5 32,523.5C 26.269,523.823 20.4357,523.823 14.5,523.5C 14.3333,485.499 14.5,447.499 15,409.5C 15.6667,408.167 16.3333,406.833 17,405.5C 19.8598,403.498 22.3598,401.165 24.5,398.5 Z"/></g>
<g><path style="opacity:1" fill="#fd4756" d="M 256.5,405.5 C 259.325,405.081 261.491,406.081 263,408.5C 263.068,419.114 266.068,428.78 272,437.5C 275.981,442.316 280.148,446.982 284.5,451.5C 268.194,462.791 255.694,459.457 247,441.5C 245.589,428.242 248.755,416.242 256.5,405.5 Z"/></g>
<g><path style="opacity:1" fill="#bebebe" d="M 59.5,417.5 C 80.6074,415.953 100.274,420.453 118.5,431C 119.749,433.21 119.582,435.376 118,437.5C 103.471,451.695 89.3041,466.195 75.5,481C 70.2465,484.431 64.5799,485.264 58.5,483.5C 58.1781,461.425 58.5114,439.425 59.5,417.5 Z"/></g>
<g><path style="opacity:1" fill="#bebebe" d="M 165.5,440.5 C 166.822,440.33 167.989,440.663 169,441.5C 182.191,462.264 188.191,484.93 187,509.5C 183.589,510.293 180.089,510.793 176.5,511C 174.376,512.122 172.543,513.622 171,515.5C 172.068,491.771 166.568,469.771 154.5,449.5C 155.128,447.742 156.128,446.242 157.5,445C 160.391,443.726 163.058,442.226 165.5,440.5 Z"/></g>
<g><path style="opacity:1" fill="#fd4756" d="M 224.5,445.5 C 227.518,445.335 230.518,445.502 233.5,446C 237.813,455.145 243.147,463.645 249.5,471.5C 245.003,475.163 240.837,479.163 237,483.5C 235.073,486.948 233.739,490.615 233,494.5C 232.76,500.514 232.76,506.514 233,512.5C 229.435,514.053 226.101,513.72 223,511.5C 221.832,491.829 218.666,472.496 213.5,453.5C 213.39,451.626 214.056,450.126 215.5,449C 218.718,448.1 221.718,446.933 224.5,445.5 Z"/></g>
<g><path style="opacity:1" fill="#fd4756" d="M 354.5,448.5 C 356.527,448.338 358.527,448.505 360.5,449C 372.414,459.87 386.414,466.536 402.5,469C 405.359,471.552 407.026,474.719 407.5,478.5C 387.479,475.344 367.646,476.344 348,481.5C 346.188,481.507 344.688,480.84 343.5,479.5C 340.967,471.795 335.8,467.128 328,465.5C 322.528,465.732 318.862,468.398 317,473.5C 316.793,477.089 316.293,480.589 315.5,484C 308.236,485.781 302.069,483.948 297,478.5C 294.008,470.966 295.841,464.799 302.5,460C 316.505,460.277 330.172,458.277 343.5,454C 347.507,452.663 351.173,450.83 354.5,448.5 Z"/></g>
<g><path style="opacity:1" fill="#fe4755" d="M 444.5,448.5 C 447.267,449.051 449.6,450.384 451.5,452.5C 457.096,459.389 462.43,466.389 467.5,473.5C 469.399,479.353 469.899,485.353 469,491.5C 461.977,497.518 453.977,501.851 445,504.5C 444.228,504.355 443.561,504.022 443,503.5C 438.141,487.276 430.308,472.776 419.5,460C 425.732,451.888 434.065,448.054 444.5,448.5 Z"/></g>
<g><path style="opacity:1" fill="#bebebe" d="M 139.5,453.5 C 142.642,453.799 144.809,455.466 146,458.5C 156.885,476.76 161.052,496.427 158.5,517.5C 135.833,517.5 113.167,517.5 90.5,517.5C 88.5345,510.03 90.0345,503.364 95,497.5C 110.339,483.327 125.173,468.661 139.5,453.5 Z"/></g>
<g><path style="opacity:1" fill="#fe4755" d="M 265.5,478.5 C 270.179,478.334 274.845,478.501 279.5,479C 286.511,489.351 295.845,496.684 307.5,501C 308.626,504.744 308.793,508.577 308,512.5C 288.503,512.773 269.003,512.773 249.5,512.5C 244.596,496.309 249.929,484.976 265.5,478.5 Z"/></g>
<g><path style="opacity:1" fill="#fd4756" d="M 374.5,488.5 C 378.846,488.334 383.179,488.501 387.5,489C 391.007,491.254 394.673,493.254 398.5,495C 403.179,495.164 407.845,495.164 412.5,495C 420.4,498.127 423.066,503.46 420.5,511C 407.578,513.199 394.578,513.866 381.5,513C 376.278,510.067 373.445,505.567 373,499.5C 370.595,497.597 368.761,495.264 367.5,492.5C 369.482,490.436 371.816,489.103 374.5,488.5 Z"/></g>
<g><path style="opacity:1" fill="#fc4a58" d="M 349.5,495.5 C 356.028,498.203 360.361,503.036 362.5,510C 362.241,511.261 361.574,512.261 360.5,513C 348.258,513.821 336.091,513.654 324,512.5C 323.207,508.577 323.374,504.744 324.5,501C 331.21,500.28 337.876,499.28 344.5,498C 346.315,497.243 347.981,496.41 349.5,495.5 Z"/></g>
<g><path style="opacity:1" fill="#fc4957" d="M 526.5,500.5 C 530.023,502.873 532.023,506.207 532.5,510.5C 530.692,510.491 529.025,510.991 527.5,512C 525.401,514.409 523.734,517.076 522.5,520C 518.29,521.02 514.623,520.02 511.5,517C 517.076,511.929 522.076,506.429 526.5,500.5 Z"/></g>
<g><path style="opacity:1" fill="#bebebe" d="M 174.5,549.5 C 172.027,551.143 170.027,553.31 168.5,556C 130.459,556.179 92.4586,556.679 54.5,557.5C 53.6448,553.433 52.6448,549.267 51.5,545C 51.7549,543.674 52.4216,542.674 53.5,542C 91.1667,541.333 128.833,541.333 166.5,542C 170.977,542.646 173.644,545.146 174.5,549.5 Z"/></g>
</svg>
